# Blender v3.2.0 OBJ File: 'leaf_noir_scene.blend'
# www.blender.org
o Bench_Cube.007
v 3.323406 0.896922 3.364220
v 3.323406 1.014433 3.364220
v 4.843054 0.896922 1.246727
v 4.843054 1.014433 1.246727
v 3.918450 0.896922 3.791262
v 3.918450 1.014433 3.791262
v 5.438099 0.896922 1.673770
v 5.438099 1.014433 1.673770
v 3.108264 1.753214 3.156077
v 3.202283 1.773619 3.223551
v 4.627913 1.753214 1.038585
v 4.721932 1.773620 1.106059
v 3.211593 1.031918 3.230232
v 3.305611 1.052324 3.297706
v 4.731242 1.031919 1.112740
v 4.825260 1.052324 1.180214
vt 0.375000 0.000000
vt 0.625000 0.000000
vt 0.625000 0.250000
vt 0.375000 0.250000
vt 0.625000 0.500000
vt 0.375000 0.500000
vt 0.625000 0.750000
vt 0.375000 0.750000
vt 0.625000 1.000000
vt 0.375000 1.000000
vt 0.125000 0.500000
vt 0.125000 0.750000
vt 0.875000 0.500000
vt 0.875000 0.750000
vt 0.375000 0.000000
vt 0.625000 0.000000
vt 0.625000 0.250000
vt 0.375000 0.250000
vt 0.625000 0.500000
vt 0.375000 0.500000
vt 0.625000 0.750000
vt 0.375000 0.750000
vt 0.625000 1.000000
vt 0.375000 1.000000
vt 0.125000 0.500000
vt 0.125000 0.750000
vt 0.875000 0.500000
vt 0.875000 0.750000
vn -0.8057 -0.5774 0.1324
vn -0.8057 0.5774 0.1324
vn -0.1324 0.5774 -0.8057
vn -0.1324 -0.5774 -0.8057
vn 0.8057 0.5774 -0.1324
vn 0.8057 -0.5774 -0.1324
vn 0.1324 0.5774 0.8057
vn 0.1324 -0.5774 0.8057
vn -0.8800 0.4683 0.0791
vn 0.0439 0.6688 0.7421
vn 0.7171 0.6688 -0.1960
vn -0.2068 0.4683 -0.8590
vn 0.8800 -0.4683 -0.0791
vn -0.0439 -0.6688 -0.7421
vn 0.2068 -0.4683 0.8590
vn -0.7171 -0.6688 0.1960
s 1
f 1/1/1 2/2/2 4/3/3 3/4/4
f 3/4/4 4/3/3 8/5/5 7/6/6
f 7/6/6 8/5/5 6/7/7 5/8/8
f 5/8/8 6/7/7 2/9/2 1/10/1
f 3/11/4 7/6/6 5/8/8 1/12/1
f 8/5/5 4/13/3 2/14/2 6/7/7
f 9/15/9 10/16/10 12/17/11 11/18/12
f 11/18/12 12/17/11 16/19/13 15/20/14
f 15/20/14 16/19/13 14/21/15 13/22/16
f 13/22/16 14/21/15 10/23/10 9/24/9
f 11/25/12 15/20/14 13/22/16 9/26/9
f 16/19/13 12/27/11 10/28/10 14/21/15
