# Blender v3.2.0 OBJ File: 'leaf_noir_scene.blend'
# www.blender.org
o Statue_Cube.003
v -11.466157 0.209076 78.763680
v -11.466157 1.759293 78.763680
v -10.530864 0.209076 74.018555
v -10.530864 1.759293 74.018555
v -6.721032 0.209076 79.698975
v -6.721032 1.759293 79.698975
v -5.785739 0.209076 74.953850
v -5.785739 1.759293 74.953850
vt 0.375000 0.000000
vt 0.625000 0.000000
vt 0.625000 0.250000
vt 0.375000 0.250000
vt 0.625000 0.500000
vt 0.375000 0.500000
vt 0.625000 0.750000
vt 0.375000 0.750000
vt 0.625000 1.000000
vt 0.375000 1.000000
vt 0.125000 0.500000
vt 0.125000 0.750000
vt 0.875000 0.500000
vt 0.875000 0.750000
vn -0.6781 -0.5774 0.4548
vn -0.6781 0.5774 0.4548
vn -0.4548 0.5774 -0.6781
vn -0.4548 -0.5774 -0.6781
vn 0.6781 0.5774 -0.4548
vn 0.6781 -0.5774 -0.4548
vn 0.4548 0.5774 0.6781
vn 0.4548 -0.5774 0.6781
s 1
f 1/1/1 2/2/2 4/3/3 3/4/4
f 3/4/4 4/3/3 8/5/5 7/6/6
f 7/6/6 8/5/5 6/7/7 5/8/8
f 5/8/8 6/7/7 2/9/2 1/10/1
f 3/11/4 7/6/6 5/8/8 1/12/1
f 8/5/5 4/13/3 2/14/2 6/7/7
