# Blender v3.2.0 OBJ File: 'leaf_noir_scene.blend'
# www.blender.org
o River_Plane.005
v -165.426208 -1.772167 190.994568
v -76.227661 -1.817741 249.810547
v -114.254944 -1.733936 138.653076
v -50.666504 -1.775972 213.941956
v -83.337891 -1.698872 89.424103
v 14.502136 -1.720621 161.077759
v -39.717285 -1.649900 28.763000
v 52.562134 -1.653041 74.110901
v 10.525146 -1.612965 -8.857605
v 62.255737 -1.599281 -7.781677
v 3.612793 -1.579803 -60.435974
v 60.000793 -1.554027 -50.049927
v -6.812866 -1.545300 -117.731140
v 44.396606 -1.519408 -133.538879
v -25.716919 -1.507759 -183.013794
v 36.283203 -1.481868 -198.821655
v -22.014282 -1.467224 -254.717346
v 5.116821 -1.460662 -262.515503
v 0.275085 -1.631433 12.222168
v 61.235168 -1.626162 35.434021
v -21.852539 -1.640666 16.699768
v 56.898621 -1.639601 54.772400
v 21.015259 -1.596383 -31.698181
v 51.429565 -1.576654 -38.706665
vt 0.000000 1.000000
vt 1.000000 1.000000
vt 1.000000 1.000000
vt 0.000000 1.000000
vt 1.000000 1.000000
vt 0.000000 1.000000
vt 1.000000 1.000000
vt 0.000000 1.000000
vt 0.000000 1.000000
vt 1.000000 1.000000
vt 1.000000 1.000000
vt 0.000000 1.000000
vt 0.000000 1.000000
vt 1.000000 1.000000
vt 1.000000 1.000000
vt 0.000000 1.000000
vt 1.000000 1.000000
vt 0.000000 1.000000
vt 1.000000 1.000000
vt 0.000000 1.000000
vt 1.000000 1.000000
vt 0.000000 1.000000
vt 0.000000 1.000000
vt 1.000000 1.000000
vn -0.0001 1.0000 0.0008
vn -0.0002 1.0000 0.0007
vn -0.0003 1.0000 0.0006
vn -0.0003 1.0000 0.0007
vn -0.0005 1.0000 0.0009
vn -0.0005 1.0000 0.0010
vn -0.0005 1.0000 0.0008
vn -0.0005 1.0000 0.0007
vn -0.0004 1.0000 0.0006
vn -0.0002 1.0000 0.0005
s 1
f 1/1/1 2/2/1 4/3/2 3/4/2
f 3/4/2 4/3/2 6/5/2 5/6/2
f 5/6/2 6/5/2 8/7/3 7/8/3
f 19/9/3 20/10/3 10/11/4 9/12/4
f 23/13/5 24/14/6 12/15/7 11/16/8
f 11/16/8 12/15/7 14/17/9 13/18/9
f 13/18/9 14/17/9 16/19/3 15/20/3
f 15/20/3 16/19/3 18/21/10 17/22/10
f 21/23/3 22/24/3 20/10/3 19/9/3
f 7/8/3 8/7/3 22/24/3 21/23/3
f 9/12/4 10/11/4 24/14/6 23/13/5
o Lake_Hidden_Plane.007
v 261.010803 -1.766344 0.000011
v 241.142532 -1.766344 -99.884506
v 255.995560 -1.766344 -50.920685
v 256.709869 -1.766344 43.668243
v 151.006088 -1.766344 69.631035
v 217.022552 -1.766344 -145.009827
v 110.410332 -1.766344 -150.742661
v 195.992538 -1.766344 -170.635010
vt 0.776530 0.446411
vt 0.764747 1.000000
vt 0.114161 1.000000
vt 0.132694 0.314662
vt 0.255118 0.238085
vt 0.403150 0.211009
vt 0.550768 0.247193
vt 0.692301 0.345244
vn 0.0000 1.0000 0.0000
s 1
f 32/25/11 31/26/11 29/27/11 28/28/11 25/29/11 27/30/11 26/31/11 30/32/11
