# Blender v3.2.0 OBJ File: 'leaf_noir_scene.blend'
# www.blender.org
o Leaf_Plane.002
v -0.055006 0.001671 0.037403
v -0.019170 0.001650 0.042343
v 0.056557 0.003029 0.016739
v 0.056557 0.003029 -0.016739
v -0.019170 0.001650 -0.042343
v -0.055006 0.001671 -0.037403
v -0.055006 0.000000 0.014354
v -0.055006 0.000000 -0.014354
v -0.019170 0.000021 0.016320
v -0.019170 0.000021 -0.016320
v -0.074275 0.003029 -0.002553
v -0.074275 0.003029 0.002553
v -0.097814 0.007006 -0.002553
v -0.097814 0.007006 0.002553
vt 0.666667 0.666667
vt 1.000000 0.666667
vt 0.666667 1.000000
vt 0.333333 0.666667
vt 0.333333 1.000000
vt 0.000000 0.555555
vt 0.333333 0.000000
vt 0.333333 0.333333
vt 0.000000 0.444444
vt 0.666667 0.000000
vt 0.666667 0.333333
vt 1.000000 0.333333
vt 0.000000 0.555555
vt 0.000000 0.444444
vn -0.0182 0.9993 0.0329
vn -0.0396 0.9992 0.0109
vn -0.0148 0.9978 0.0649
vn 0.0934 0.9948 0.0402
vn 0.0509 0.9964 0.0682
vn 0.1648 0.9863 0.0088
vn 0.0509 0.9964 -0.0682
vn 0.0934 0.9948 -0.0402
vn 0.1648 0.9863 -0.0088
vn -0.0148 0.9978 -0.0649
vn -0.0182 0.9993 -0.0329
vn -0.0396 0.9992 -0.0109
vn 0.1666 0.9860 0.0000
s 1
f 10/1/1 4/2/2 5/3/3
f 8/4/4 6/5/5 11/6/6
f 8/4/4 10/1/1 5/3/3 6/5/5
f 1/7/7 7/8/8 12/9/9
f 1/7/7 2/10/10 9/11/11 7/8/8
f 7/8/8 9/11/11 10/1/1 8/4/4
f 2/10/10 3/12/12 9/11/11
f 9/11/11 3/12/12 4/2/2 10/1/1
f 12/9/9 11/6/6 13/13/13 14/14/13
f 7/8/8 8/4/4 11/6/6 12/9/9
